<svg xmlns="http://www.w3.org/2000/svg" viewBox="0 0 1308.9 236.24"><g id="Layer_2" data-name="Layer 2"><g id="Layer_1-2" data-name="Layer 1"><path d="M127.9,67.8H78.48V194.38H49.42V67.8H0V44.45H127.9Z"/><path d="M287.47,194.38l-49.65-58H215.17v58H186.23l-.12-149.93h57.32c34.32,0,62.46,21.49,62.46,48.18,0,19.35-15.33,36.18-36.49,41.76l53.65,60Zm-43.35-77.57c17.38.1,31.91-11.34,31.91-24.74,0-13.95-14.75-24.27-31.91-24.27H215.06v49Z"/><path d="M406.66,67.61V106h69.79v23.44H406.66v41.48h80.88v23.44H377.72V44.45H487.54V67.61Z"/><path d="M775.71,168.15l22.89-13.3c8.23,11.72,23.56,18.42,41.29,18.42,20.71,0,36.38-8.09,36.38-19.53,0-13.86-24.25-22.23-45.76-29.77-21.62-7.81-45.64-16.92-45.64-40.45,0-24.56,26.2-41.67,59.37-41.67,26.31,0,46,10.32,53.54,26.79L876.27,80.73c-5.72-10.14-18.41-15.81-31.8-15.81-16.93,0-30.43,8.55-30.43,19.15,0,11.72,17.05,15.91,39.47,23.72,29.17,10.42,51.82,21.86,51.82,45.48,0,26.6-28.37,43.71-65.78,43.71C809.23,197,786.24,185.45,775.71,168.15Z"/><path d="M963.66,136.16V43.06h29.06v93c0,20.74,18,35.9,40.5,35.9s40.72-15.16,40.72-35.9v-93h29.17v93.1c0,34.41-30.54,59.61-69.78,59.61S963.66,170.57,963.66,136.16Z"/><path d="M1273.32,194.38l-49.65-58H1201v58h-28.94L1172,44.45h57.32c34.32,0,62.46,21.49,62.46,48.18,0,19.35-15.33,36.18-36.49,41.76l53.65,60ZM1230,116.81c17.38.1,31.91-11.34,31.91-24.74,0-13.95-14.75-24.27-31.91-24.27h-29.06v49Z"/><path d="M638.37,2.6,637.13,0l-1.38,2.6L503.33,236.24H770.8Zm-1.22,78.54,49.45,89.48,17,30.68H570.49l17-30.68Z"/></g></g></svg>