<?xml version="1.0" encoding="utf-8"?>
<!-- Generator: Adobe Illustrator 25.0.0, SVG Export Plug-In . SVG Version: 6.00 Build 0)  -->
<svg version="1.1" id="Layer_1" xmlns="http://www.w3.org/2000/svg" xmlns:xlink="http://www.w3.org/1999/xlink" x="0px" y="0px"
	 viewBox="0 0 1920 1080" style="enable-background:new 0 0 1920 1080;" xml:space="preserve">
<style type="text/css">
	.st0{fill:#1A1A1A;}
</style>
<g>
	<path class="st0" d="M341.93,513.54h-60.81v155.75h-35.75V513.54h-60.81v-28.72h157.37V513.54z"/>
	<path class="st0" d="M538.27,669.28l-61.09-71.41h-27.87v71.41H413.7l-0.14-184.47h70.52c42.23,0,76.86,26.43,76.86,59.28
		c0,23.8-18.86,44.52-44.9,51.38l66.02,73.81H538.27z M484.92,573.84c21.4,0.11,39.27-13.96,39.27-30.44
		c0-17.17-18.16-29.87-39.27-29.87h-35.75v60.31H484.92z"/>
	<path class="st0" d="M684.92,513.31v47.26h85.87v28.84h-85.87v51.04h99.52v28.84H649.31V484.81h135.13v28.49H684.92z"/>
	<path class="st0" d="M1139.01,637.01l28.15-16.36c10.13,14.42,29,22.66,50.82,22.66c25.48,0,44.76-9.96,44.76-24.03
		c0-17.05-29.84-27.35-56.3-36.62c-26.6-9.61-56.16-20.83-56.16-49.78c0-30.21,32.23-51.27,73.06-51.27
		c32.38,0,56.59,12.7,65.88,32.96l-26.46,14.88c-7.04-12.47-22.66-19.45-39.13-19.45c-20.83,0-37.44,10.53-37.44,23.57
		c0,14.42,20.97,19.57,48.56,29.18c35.89,12.82,63.77,26.89,63.77,55.96c0,32.73-34.91,53.79-80.94,53.79
		C1180.26,672.49,1151.97,658.3,1139.01,637.01z"/>
	<path class="st0" d="M1370.27,597.65V483.1h35.75v114.44c0,25.52,22.1,44.17,49.83,44.17s50.11-18.65,50.11-44.17V483.1h35.89
		v114.55c0,42.34-37.58,73.35-85.87,73.35C1407.71,671,1370.27,639.99,1370.27,597.65z"/>
	<path class="st0" d="M1751.29,669.28l-61.09-71.41h-27.87v71.41h-35.61l-0.14-184.47h70.52c42.23,0,76.86,26.43,76.86,59.28
		c0,23.8-18.86,44.52-44.9,51.38l66.02,73.81H1751.29z M1697.94,573.84c21.4,0.11,39.27-13.96,39.27-30.44
		c0-17.17-18.16-29.87-39.27-29.87h-35.75v60.31H1697.94z"/>
	<path class="st0" d="M970.03,433.31l-1.53-3.19l-1.69,3.19L803.86,720.79h58.9h211.31h58.9L970.03,433.31z M968.52,529.95
		l60.84,110.1l20.97,37.75H886.5l20.97-37.75L968.52,529.95z"/>
</g>
</svg>
