<svg id="Layer_1" data-name="Layer 1" xmlns="http://www.w3.org/2000/svg" viewBox="0 0 349.98 88.69"><defs><style>.cls-1{font-size:43.27px;font-family:Roboto-Medium, Roboto;font-weight:500;}.cls-1,.cls-4{fill:#281a03;}.cls-2{font-size:27.68px;letter-spacing:0em;}.cls-2,.cls-3{font-family:Roboto-Regular, Roboto;font-weight:400;}.cls-3{font-size:22.41px;letter-spacing:0em;}</style></defs><text class="cls-1" transform="translate(90.13 66.52) scale(1.18 1)">TREASUR<tspan class="cls-2" x="187.84" y="0">.</tspan><tspan class="cls-3" x="195.13" y="0">co</tspan></text><path class="cls-4" d="M143.17,144.05l-46.18,8,10.09,35.14,44.35-7.69Q147.24,161.51,143.17,144.05Zm-23.12,28.56-3-13.24,14.21,3.77Z" transform="translate(-96.99 -98.49)"/><path class="cls-4" d="M165.06,107.48c-3.18-2.7-6.68-4-11-3.21-5.34,1-10.75,1.56-16.12,2.39q-13.05,2-26.07,4.12c-4.84.79-7.75,3.82-9.36,8.31-1.46,4.06-1.71,7.84,2,11a38.42,38.42,0,0,1,2.84,3.34l11.11,12.14,5.53-1-9.29-12.41L109,124.89a7.52,7.52,0,0,1,1.14-.47c12.38-2.29,24.76-4.6,37.17-6.77a3.56,3.56,0,0,1,2.71,1.2c3.58,4.2,7,8.51,10.51,12.79,1.94,2.38,3.86,4.77,6.23,7.7l-17.24,3L155.89,179l19.21-3.33c-.14-1.16-.24-2.1-.36-3-1.28-10.18-2.62-20.36-3.78-30.55a9.88,9.88,0,0,1,.77-4.89A25.72,25.72,0,0,0,165.06,107.48Z" transform="translate(-96.99 -98.49)"/><path class="cls-4" d="M181,113.16c-.43-4-.94-6.17-6.48-7.29-.2-.72,0-1.13.83-1.15a5.76,5.76,0,0,0,1.15-.25c3-.75,4.1-2,4.3-5.12.05-.71.26-1,1.14-.78,0,4.25,2.27,6.3,6.57,6.2l.06,1.07c-1.17.33-2.25.59-3.3,1a3.88,3.88,0,0,0-2.64,2.87,25.08,25.08,0,0,0-.58,2.84C181.9,113.18,181.64,113.4,181,113.16Z" transform="translate(-96.99 -98.49)"/></svg>